<mxfile host="app.diagrams.net" modified="2023-09-21T13:46:51.143Z" agent="Mozilla/5.0 (X11; Linux x86_64; rv:109.0) Gecko/20100101 Firefox/114.0" etag="03qzMysP1nIZivznPUrU" version="21.7.5" type="github">
  <diagram name="PÃ¡gina-1" id="qEB6BaKTPmM8J646-XOI">
    <mxGraphModel dx="685" dy="829" grid="1" gridSize="10" guides="1" tooltips="1" connect="1" arrows="1" fold="1" page="1" pageScale="1" pageWidth="850" pageHeight="1400" math="0" shadow="0">
      <root>
        <mxCell id="0" />
        <mxCell id="1" parent="0" />
      </root>
    </mxGraphModel>
  </diagram>
</mxfile>
